<mxfile host="app.diagrams.net" agent="Mozilla/5.0 (Windows NT 10.0; Win64; x64) AppleWebKit/537.36 (KHTML, like Gecko) Chrome/134.0.0.0 Safari/537.36" version="26.2.3">
  <diagram id="C5RBs43oDa-KdzZeNtuy" name="Page-1">
    <mxGraphModel dx="520" dy="630" grid="1" gridSize="10" guides="1" tooltips="1" connect="1" arrows="1" fold="1" page="1" pageScale="1" pageWidth="827" pageHeight="1169" math="0" shadow="0">
      <root>
        <mxCell id="WIyWlLk6GJQsqaUBKTNV-0" />
        <mxCell id="WIyWlLk6GJQsqaUBKTNV-1" parent="WIyWlLk6GJQsqaUBKTNV-0" />
        <mxCell id="WQBhitpU8izyZCobxTX9-1" value="" style="edgeStyle=orthogonalEdgeStyle;rounded=0;orthogonalLoop=1;jettySize=auto;html=1;" parent="WIyWlLk6GJQsqaUBKTNV-1" source="WIyWlLk6GJQsqaUBKTNV-3" target="WIyWlLk6GJQsqaUBKTNV-6" edge="1">
          <mxGeometry relative="1" as="geometry" />
        </mxCell>
        <mxCell id="WIyWlLk6GJQsqaUBKTNV-3" value="시작" style="rounded=1;whiteSpace=wrap;html=1;fontSize=12;glass=0;strokeWidth=1;shadow=0;" parent="WIyWlLk6GJQsqaUBKTNV-1" vertex="1">
          <mxGeometry x="60" y="70" width="120" height="40" as="geometry" />
        </mxCell>
        <mxCell id="WQBhitpU8izyZCobxTX9-5" value="Yes" style="edgeStyle=orthogonalEdgeStyle;rounded=0;orthogonalLoop=1;jettySize=auto;html=1;" parent="WIyWlLk6GJQsqaUBKTNV-1" source="WIyWlLk6GJQsqaUBKTNV-6" target="WQBhitpU8izyZCobxTX9-4" edge="1">
          <mxGeometry x="0.2" y="-20" relative="1" as="geometry">
            <mxPoint as="offset" />
          </mxGeometry>
        </mxCell>
        <mxCell id="WQBhitpU8izyZCobxTX9-7" value="No" style="edgeStyle=orthogonalEdgeStyle;rounded=0;orthogonalLoop=1;jettySize=auto;html=1;" parent="WIyWlLk6GJQsqaUBKTNV-1" source="WIyWlLk6GJQsqaUBKTNV-6" target="WQBhitpU8izyZCobxTX9-6" edge="1">
          <mxGeometry x="-0.1045" y="10" relative="1" as="geometry">
            <mxPoint as="offset" />
          </mxGeometry>
        </mxCell>
        <mxCell id="WIyWlLk6GJQsqaUBKTNV-6" value="&lt;div&gt;독방번호가&lt;/div&gt;n의 배수인가?" style="rhombus;whiteSpace=wrap;html=1;shadow=0;fontFamily=Helvetica;fontSize=12;align=center;strokeWidth=1;spacing=6;spacingTop=-4;" parent="WIyWlLk6GJQsqaUBKTNV-1" vertex="1">
          <mxGeometry x="60" y="130" width="120" height="60" as="geometry" />
        </mxCell>
        <mxCell id="WIyWlLk6GJQsqaUBKTNV-11" value="끝" style="rounded=1;whiteSpace=wrap;html=1;fontSize=12;glass=0;strokeWidth=1;shadow=0;" parent="WIyWlLk6GJQsqaUBKTNV-1" vertex="1">
          <mxGeometry x="60" y="410" width="120" height="40" as="geometry" />
        </mxCell>
        <mxCell id="WQBhitpU8izyZCobxTX9-11" value="" style="edgeStyle=orthogonalEdgeStyle;rounded=0;orthogonalLoop=1;jettySize=auto;html=1;" parent="WIyWlLk6GJQsqaUBKTNV-1" source="WQBhitpU8izyZCobxTX9-4" target="WQBhitpU8izyZCobxTX9-10" edge="1">
          <mxGeometry relative="1" as="geometry" />
        </mxCell>
        <mxCell id="WQBhitpU8izyZCobxTX9-4" value="닫는다" style="rounded=0;whiteSpace=wrap;html=1;" parent="WIyWlLk6GJQsqaUBKTNV-1" vertex="1">
          <mxGeometry x="60" y="210" width="120" height="40" as="geometry" />
        </mxCell>
        <mxCell id="WQBhitpU8izyZCobxTX9-13" style="edgeStyle=orthogonalEdgeStyle;rounded=0;orthogonalLoop=1;jettySize=auto;html=1;" parent="WIyWlLk6GJQsqaUBKTNV-1" source="WQBhitpU8izyZCobxTX9-6" edge="1">
          <mxGeometry relative="1" as="geometry">
            <mxPoint x="120" y="260" as="targetPoint" />
            <Array as="points">
              <mxPoint x="254" y="260" />
            </Array>
          </mxGeometry>
        </mxCell>
        <mxCell id="WQBhitpU8izyZCobxTX9-6" value="연다" style="rounded=0;whiteSpace=wrap;html=1;" parent="WIyWlLk6GJQsqaUBKTNV-1" vertex="1">
          <mxGeometry x="194" y="210" width="120" height="40" as="geometry" />
        </mxCell>
        <mxCell id="WQBhitpU8izyZCobxTX9-12" value="No" style="edgeStyle=orthogonalEdgeStyle;rounded=0;orthogonalLoop=1;jettySize=auto;html=1;entryX=0;entryY=0.5;entryDx=0;entryDy=0;exitX=0;exitY=0.5;exitDx=0;exitDy=0;" parent="WIyWlLk6GJQsqaUBKTNV-1" source="WQBhitpU8izyZCobxTX9-10" target="WIyWlLk6GJQsqaUBKTNV-6" edge="1">
          <mxGeometry y="20" relative="1" as="geometry">
            <Array as="points">
              <mxPoint x="40" y="300" />
              <mxPoint x="40" y="160" />
            </Array>
            <mxPoint as="offset" />
          </mxGeometry>
        </mxCell>
        <mxCell id="WQBhitpU8izyZCobxTX9-16" value="Yes" style="edgeStyle=orthogonalEdgeStyle;rounded=0;orthogonalLoop=1;jettySize=auto;html=1;" parent="WIyWlLk6GJQsqaUBKTNV-1" source="WQBhitpU8izyZCobxTX9-10" target="WQBhitpU8izyZCobxTX9-14" edge="1">
          <mxGeometry x="0.6667" y="20" relative="1" as="geometry">
            <mxPoint as="offset" />
          </mxGeometry>
        </mxCell>
        <mxCell id="WQBhitpU8izyZCobxTX9-10" value="n번 반복&lt;div&gt;했는가?&lt;/div&gt;" style="rhombus;whiteSpace=wrap;html=1;shadow=0;fontFamily=Helvetica;fontSize=12;align=center;strokeWidth=1;spacing=6;spacingTop=-4;" parent="WIyWlLk6GJQsqaUBKTNV-1" vertex="1">
          <mxGeometry x="60" y="270" width="120" height="60" as="geometry" />
        </mxCell>
        <mxCell id="WQBhitpU8izyZCobxTX9-17" value="" style="edgeStyle=orthogonalEdgeStyle;rounded=0;orthogonalLoop=1;jettySize=auto;html=1;" parent="WIyWlLk6GJQsqaUBKTNV-1" source="WQBhitpU8izyZCobxTX9-14" target="WIyWlLk6GJQsqaUBKTNV-11" edge="1">
          <mxGeometry relative="1" as="geometry" />
        </mxCell>
        <mxCell id="WQBhitpU8izyZCobxTX9-14" value="열려있는 독방&lt;div&gt;개수 출력&lt;/div&gt;" style="shape=parallelogram;perimeter=parallelogramPerimeter;whiteSpace=wrap;html=1;fixedSize=1;" parent="WIyWlLk6GJQsqaUBKTNV-1" vertex="1">
          <mxGeometry x="60" y="350" width="120" height="40" as="geometry" />
        </mxCell>
        <mxCell id="WQBhitpU8izyZCobxTX9-22" value="" style="edgeStyle=orthogonalEdgeStyle;rounded=0;orthogonalLoop=1;jettySize=auto;html=1;" parent="WIyWlLk6GJQsqaUBKTNV-1" source="WQBhitpU8izyZCobxTX9-18" target="WQBhitpU8izyZCobxTX9-21" edge="1">
          <mxGeometry relative="1" as="geometry" />
        </mxCell>
        <mxCell id="WQBhitpU8izyZCobxTX9-18" value="시작" style="rounded=1;whiteSpace=wrap;html=1;fontSize=12;glass=0;strokeWidth=1;shadow=0;" parent="WIyWlLk6GJQsqaUBKTNV-1" vertex="1">
          <mxGeometry x="440" y="70" width="120" height="40" as="geometry" />
        </mxCell>
        <mxCell id="WQBhitpU8izyZCobxTX9-19" value="끝" style="rounded=1;whiteSpace=wrap;html=1;fontSize=12;glass=0;strokeWidth=1;shadow=0;" parent="WIyWlLk6GJQsqaUBKTNV-1" vertex="1">
          <mxGeometry x="440" y="250" width="120" height="40" as="geometry" />
        </mxCell>
        <mxCell id="WQBhitpU8izyZCobxTX9-24" value="" style="edgeStyle=orthogonalEdgeStyle;rounded=0;orthogonalLoop=1;jettySize=auto;html=1;" parent="WIyWlLk6GJQsqaUBKTNV-1" source="WQBhitpU8izyZCobxTX9-21" target="WQBhitpU8izyZCobxTX9-23" edge="1">
          <mxGeometry relative="1" as="geometry" />
        </mxCell>
        <mxCell id="WQBhitpU8izyZCobxTX9-21" value="완전제곱수 계산" style="rounded=0;whiteSpace=wrap;html=1;" parent="WIyWlLk6GJQsqaUBKTNV-1" vertex="1">
          <mxGeometry x="440" y="130" width="120" height="40" as="geometry" />
        </mxCell>
        <mxCell id="WQBhitpU8izyZCobxTX9-25" value="" style="edgeStyle=orthogonalEdgeStyle;rounded=0;orthogonalLoop=1;jettySize=auto;html=1;" parent="WIyWlLk6GJQsqaUBKTNV-1" source="WQBhitpU8izyZCobxTX9-23" target="WQBhitpU8izyZCobxTX9-19" edge="1">
          <mxGeometry relative="1" as="geometry" />
        </mxCell>
        <mxCell id="WQBhitpU8izyZCobxTX9-23" value="열려있는 독방&lt;div&gt;개수 출력&lt;/div&gt;" style="shape=parallelogram;perimeter=parallelogramPerimeter;whiteSpace=wrap;html=1;fixedSize=1;" parent="WIyWlLk6GJQsqaUBKTNV-1" vertex="1">
          <mxGeometry x="440" y="190" width="120" height="40" as="geometry" />
        </mxCell>
      </root>
    </mxGraphModel>
  </diagram>
</mxfile>
